<svg viewBox="0 0 256 256" xmlns="http://www.w3.org/2000/svg"><path fill="none" d="M0 0h256v256H0z"></path><path d="m213.7 82.3-56-56A8.1 8.1 0 0 0 152 24H56a16 16 0 0 0-16 16v88a8 8 0 0 0 8 8h160a8 8 0 0 0 8-8V88a8.1 8.1 0 0 0-2.3-5.7ZM152 88V44l44 44Zm-88 72H48a8 8 0 0 0-8 8v48a8 8 0 0 0 16 0v-8h8a24 24 0 0 0 0-48Zm0 32h-8v-16h8a8 8 0 0 1 0 16Zm64-32h-16a8 8 0 0 0-8 8v48a8 8 0 0 0 16 0v-8h8a24 24 0 0 0 0-48Zm0 32h-8v-16h8a8 8 0 0 1 0 16Zm88-24a8 8 0 0 1-8 8h-10v40a8 8 0 0 1-16 0v-40h-10a8 8 0 0 1 0-16h36a8 8 0 0 1 8 8Z" fill="#dd5b26" class="fill-000000"></path></svg>