<svg width="26" height="24" viewBox="0 0 26 24" fill="none" xmlns="http://www.w3.org/2000/svg">
<g id="mingcute:down-fill" clip-path="url(#clip0_411_22)">
<g id="Group">
<path id="Vector" fill-rule="evenodd" clip-rule="evenodd" d="M14.3485 16.06C14.0554 16.3409 13.6583 16.4987 13.2441 16.4987C12.83 16.4987 12.4328 16.3409 12.1398 16.06L6.24532 10.404C5.95231 10.1226 5.78774 9.74102 5.78784 9.34316C5.78794 8.9453 5.95269 8.56377 6.24585 8.28251C6.539 8.00125 6.93655 7.84329 7.35104 7.84338C7.76553 7.84348 8.16301 8.00162 8.45603 8.28301L13.2441 12.879L18.0323 8.28301C18.3269 8.00964 18.7215 7.85827 19.1313 7.8615C19.541 7.86473 19.933 8.0223 20.2229 8.30028C20.5128 8.57827 20.6773 8.95441 20.6811 9.34771C20.6848 9.741 20.5275 10.12 20.243 10.403L14.3495 16.061L14.3485 16.06Z" fill="#1488DB"/>
</g>
</g>
<defs>
<clipPath id="clip0_411_22">
<rect width="25.0032" height="24" fill="white" transform="translate(0.742432)"/>
</clipPath>
</defs>
</svg>
