<svg fill="none" viewBox="0 0 512 512" xmlns="http://www.w3.org/2000/svg"><path d="M507.58 421.517a32.951 32.951 0 0 0-13.75-21.16l-143-97a178.273 178.273 0 0 0 15.64-72.74 178.417 178.417 0 0 0-30.58-99.82 180.896 180.896 0 0 0-81.4-66.14 182.51 182.51 0 0 0-197.41 38.89A178.641 178.641 0 0 0 4.876 248.291 178.65 178.65 0 0 0 84.55 379.927a182.45 182.45 0 0 0 100.63 30.22 182.329 182.329 0 0 0 127.4-52l143.74 96.51.08.05a33.228 33.228 0 0 0 45.78-8.39 32.823 32.823 0 0 0 5.4-24.8Zm-275-78.07a124.721 124.721 0 0 1-134.87-26.53 121.449 121.449 0 0 1 18.73-188 124.563 124.563 0 0 1 68.74-20.65 124.632 124.632 0 0 1 87.42 35.94 121.71 121.71 0 0 1 36.23 86.29 121.369 121.369 0 0 1-20.8 67.89 123.363 123.363 0 0 1-55.47 45.06h.02Z" fill="#a8a4a4" class="fill-000000"></path></svg>