<svg width="84" height="110" viewBox="0 0 84 110" fill="none" xmlns="http://www.w3.org/2000/svg">
<path id="Vector" d="M84 26.75V60.1875C84 61.0743 83.6839 61.9248 83.1213 62.5519C82.5587 63.179 81.7956 63.5312 81 63.5312H69V76.9062C69 77.7931 68.6839 78.6436 68.1213 79.2706C67.5587 79.8977 66.7956 80.25 66 80.25H18C17.2044 80.25 16.4413 79.8977 15.8787 79.2706C15.3161 78.6436 15 77.7931 15 76.9062V63.5312H3C2.20435 63.5312 1.44129 63.179 0.87868 62.5519C0.31607 61.9248 0 61.0743 0 60.1875V26.75C0 21.2203 4.26 16.7188 9.49875 16.7188H15V3.34375C15 2.45693 15.3161 1.60644 15.8787 0.979362C16.4413 0.352288 17.2044 0 18 0H66C66.7956 0 67.5587 0.352288 68.1213 0.979362C68.6839 1.60644 69 2.45693 69 3.34375V16.7188H74.5013C79.74 16.7188 84 21.2203 84 26.75ZM21 16.7188H63V6.6875H21V16.7188ZM63 53.5H21V73.5625H63V53.5ZM69 35.1094C69 34.1174 68.7361 33.1477 68.2416 32.3228C67.7471 31.498 67.0443 30.8552 66.2221 30.4755C65.3998 30.0959 64.495 29.9966 63.6221 30.1901C62.7492 30.3837 61.9474 30.8613 61.318 31.5628C60.6887 32.2642 60.2601 33.1579 60.0865 34.1309C59.9128 35.1038 60.0019 36.1123 60.3425 37.0288C60.6831 37.9453 61.2599 38.7286 61.9999 39.2797C62.74 39.8308 63.61 40.125 64.5 40.125C65.6935 40.125 66.8381 39.5966 67.682 38.656C68.5259 37.7153 69 36.4396 69 35.1094Z" fill="#1488DB"/>
<text x="50%" y="90%" text-anchor="middle" dy=".3em" fill="#1488DB" font-size="30" font-family= "Source Serif Pro" font-weight="bold">
    SPSS
</text>
</svg>
